#!OML:ASF H:\GeneralSubjects\Female5\Project 1\Capture day 1\Session 1\Female5.ASF
:FULLY-SPECIFIED
:DEGREES
99
root 40.7832 15.2571 2.64791 123.201 -81.9472 -105.759
lowerback 7.2911 0.831153 7.78382
upperback -7.8653 2.33381 4.1469
thorax -12.5983 0.523002 -0.199049
lowerneck -18.4702 0.704615 0.54346
upperneck 30.535 3.44461 -10.2162
head 13.6755 -0.153591 -3.66077
rclavicle 3.67752e-015 -1.74931e-014
rhumerus -51.1817 25.827 -87.4838
rradius 44.3011
rwrist -14.57
rhand -21.6117 -18.2114
rfingers 7.12502
rthumb 4.78368 -48.1374
lclavicle 3.67752e-015 -1.74931e-014
lhumerus -53.1649 3.55995 77.6087
lradius 45.4479
lwrist 1.30462
lhand -29.4859 29.7447
lfingers 7.12502
lthumb -2.82094 59.7058
rfemur 7.09426 14.1827 42.2105
rtibia -8.36502
rfoot -28.3399 -16.8913
rtoes -15.5495
lfemur -46.6651 -0.404 -20.613
ltibia 62.0851
lfoot -16.3855 -4.30308
ltoes -37.7883
100
root 40.5368 15.2191 2.61718 118.399 -82.2426 -100.966
lowerback 7.61379 0.737602 8.01868
upperback -7.75351 2.27422 4.11709
thorax -12.6666 0.475191 -0.357523
lowerneck -17.9668 0.287885 0.073128
upperneck 30.3693 2.93469 -10.1894
head 13.4512 -0.41316 -3.63402
rclavicle 2.48481e-016 9.54166e-015
rhumerus -50.2709 26.5793 -87.2812
rradius 45.0419
rwrist -14.1168
rhand -20.7118 -18.602
rfingers 7.12502
rthumb 5.65259 -48.5066
lclavicle 2.48481e-016 9.54166e-015
lhumerus -53.7651 3.4014 77.5192
lradius 45.6208
lwrist 1.25193
lhand -29.4081 29.3109
lfingers 7.12502
lthumb -2.74583 59.273
rfemur 9.03572 14.8526 42.839
rtibia -9.8967
rfoot -28.3024 -18.1862
rtoes -14.9097
lfemur -48.9526 -0.513499 -21.1472
ltibia 61.6151
lfoot -17.7012 -5.74002
ltoes -40.1432
101
root 40.2869 15.1709 2.58425 115.189 -82.3782 -97.4661
lowerback 7.741 0.806643 8.11672
upperback -7.74163 2.39615 4.08657
thorax -12.7204 0.522245 -0.469023
lowerneck -17.8676 0.283393 0.0503443
upperneck 30.1401 2.9128 -10.1318
head 13.3286 -0.400833 -3.59407
rclavicle 1.81391e-014 -2.62396e-014
rhumerus -49.3817 27.1753 -86.9783
rradius 46.0568
rwrist -13.9967
rhand -21.2964 -19.4778
rfingers 7.12502
rthumb 5.08818 -49.3967
lclavicle 1.81391e-014 -2.62396e-014
lhumerus -54.35 3.2452 77.3482
lradius 45.7254
lwrist 0.862026
lhand -28.8281 29.2333
lfingers 7.12502
lthumb -2.18567 59.2019
rfemur 10.6569 15.8711 43.6098
rtibia -11.1979
rfoot -28.4557 -19.5105
rtoes -13.7041
lfemur -51.5448 -0.613222 -21.5109
ltibia 60.7793
lfoot -16.9415 -8.57394
ltoes -40.3094
102
root 40.031 15.1184 2.5557 112.36 -82.479 -94.1722
lowerback 7.87147 0.718872 8.14702
upperback -7.79067 2.31169 4.22749
thorax -12.8726 0.47954 -0.314111
lowerneck -17.8299 0.513263 -0.127574
upperneck 29.8243 3.29202 -10.1191
head 13.2141 -0.238376 -3.47785
rclavicle 1.10325e-014 7.95139e-016
rhumerus -48.5566 28.5846 -86.8776
rradius 47.334
rwrist -13.5351
rhand -23.5513 -21.8101
rfingers 7.12502
rthumb 2.91072 -51.77
lclavicle 1.10325e-014 7.95139e-016
lhumerus -55.2713 3.89268 76.9447
lradius 46.0805
lwrist 0.0492597
lhand -28.698 30.4396
lfingers 7.12502
lthumb -2.06005 60.4094
rfemur 12.0981 16.9906 44.466
rtibia -12.3693
rfoot -28.6977 -21.0857
rtoes -13.6835
lfemur -54.2961 -1.04468 -21.7695
ltibia 59.6564
lfoot -16.0887 -11.2471
ltoes -40.958
103
root 39.7708 15.0702 2.53034 109.877 -82.5698 -91.1927
lowerback 8.17106 0.752224 8.0557
upperback -7.8286 2.39062 4.26179
thorax -13.1034 0.520194 -0.241999
lowerneck -17.892 0.372488 -0.47913
upperneck 29.6273 3.12625 -9.8724
head 13.1239 -0.305507 -3.33331
rclavicle 1.63997e-014 -4.37326e-014
rhumerus -47.059 28.9757 -86.0297
rradius 48.1875
rwrist -13.898
rhand -21.746 -19.4077
rfingers 7.12502
rthumb 4.65403 -49.3366
lclavicle 1.63997e-014 -4.37326e-014
lhumerus -56.2301 4.1143 76.5852
lradius 46.8189
lwrist -1.04924
lhand -27.6294 32.1916
lfingers 7.12502
lthumb -1.02799 62.1689
rfemur 13.4266 18.1549 45.3496
rtibia -13.3609
rfoot -28.8401 -22.6182
rtoes -12.2126
lfemur -56.7279 -1.58314 -21.9242
ltibia 57.7498
lfoot -15.013 -13.4668
ltoes -41.6729
104
root 39.4984 15.0227 2.50871 109.019 -82.7252 -89.7936
lowerback 8.52566 0.894238 7.89753
upperback -7.88263 2.60273 4.13127
thorax -13.3722 0.621301 -0.342706
lowerneck -18.2616 0.20298 -0.812018
upperneck 29.5278 2.92019 -9.54447
head 13.1374 -0.383724 -3.1758
rclavicle 5.96354e-016 4.45278e-014
rhumerus -45.7041 29.1456 -85.3862
rradius 49.3286
rwrist -13.9385
rhand -20.6991 -18.9427
rfingers 7.12502
rthumb 5.66487 -48.8469
lclavicle 5.96354e-016 4.45278e-014
lhumerus -57.2257 3.97912 76.1979
lradius 47.7515
lwrist -2.12951
lhand -26.9333 32.7724
lfingers 7.12502
lthumb -0.355667 62.7518
rfemur 14.5818 19.4875 46.0951
rtibia -13.8251
rfoot -29.6341 -24.2099
rtoes -10.3192
lfemur -58.8014 -2.10047 -22.0626
ltibia 55.2206
lfoot -13.2659 -16.3359
ltoes -41.2913
105
root 39.2076 14.9725 2.4934 110.153 -83.0443 -90.3977
lowerback 8.7811 1.14216 7.52693
upperback -7.92912 2.90368 3.87894
thorax -13.5627 0.781679 -0.480868
lowerneck -18.6713 0.114554 -1.05095
upperneck 29.3617 2.83764 -9.31795
head 13.1438 -0.407944 -3.05298
rclavicle -3.77691e-015 5.24792e-014
rhumerus -44.5872 29.066 -84.7584
rradius 50.6575
rwrist -13.6796
rhand -21.1202 -18.9095
rfingers 7.12502
rthumb 5.25826 -48.8242
lclavicle -3.77691e-015 5.24792e-014
lhumerus -58.3364 3.67084 75.8575
lradius 48.9871
lwrist -2.89821
lhand -27.0218 32.3347
lfingers 7.12502
lthumb -0.441116 62.314
rfemur 15.5771 20.9801 46.5739
rtibia -13.5881
rfoot -30.7482 -25.1322
rtoes -8.85401
lfemur -60.4221 -2.78045 -22.1962
ltibia 52.1798
lfoot -10.7809 -19.1547
ltoes -40.9823
106
root 38.9049 14.9306 2.48142 112.271 -83.4843 -92.16
lowerback 9.31741 1.33224 6.9067
upperback -7.95403 3.12048 3.65891
thorax -13.9233 0.925119 -0.437882
lowerneck -18.8971 -0.277073 -1.8718
upperneck 29.0872 2.39168 -8.78621
head 13.0379 -0.608414 -2.76169
rclavicle 6.75868e-015 1.59028e-015
rhumerus -43.4552 29.146 -84.1562
rradius 51.9997
rwrist -13.3243
rhand -21.4864 -18.0123
rfingers 7.12502
rthumb 4.90472 -47.9355
lclavicle 6.75868e-015 1.59028e-015
lhumerus -59.786 3.4552 75.6395
lradius 50.7737
lwrist -3.04629
lhand -27.4102 32.0721
lfingers 7.12502
lthumb -0.816276 62.0503
rfemur 16.604 22.4604 46.9035
rtibia -12.9875
rfoot -31.447 -26.121
rtoes -7.89783
lfemur -61.371 -3.64017 -22.2882
ltibia 49.0463
lfoot -2.48665 -21.7726
ltoes -26.1388
107
root 38.5874 14.8945 2.47059 115.399 -84.0184 -95.0495
lowerback 10.0391 1.48413 6.02427
upperback -7.90963 3.25497 3.47823
thorax -14.342 1.06063 -0.198063
lowerneck -18.7304 -0.234198 -1.33012
upperneck 28.2558 2.3918 -9.29771
head 12.6734 -0.572872 -3.01407
rclavicle -1.2921e-015 -4.29375e-014
rhumerus -42.1972 29.3103 -83.438
rradius 53.4814
rwrist -13.1836
rhand -21.5058 -16.0532
rfingers 7.12502
rthumb 4.88597 -45.9769
lclavicle -1.2921e-015 -4.29375e-014
lhumerus -61.3421 3.17085 75.668
lradius 53.0102
lwrist -2.34065
lhand -27.7502 32.2763
lfingers 7.12502
lthumb -1.14467 62.253
rfemur 17.7151 23.9129 47.1314
rtibia -12.1966
rfoot -33.621 -26.5446
rtoes -5.12017
lfemur -61.7677 -4.75504 -22.2493
ltibia 45.8742
lfoot -0.459846 -22.036
ltoes -29.6856
108
root 38.2509 14.8569 2.46156 119.452 -84.5759 -98.891
lowerback 10.6879 1.65647 5.05627
upperback -7.82337 3.3757 3.27623
thorax -14.6742 1.20232 0.0674561
lowerneck -19.0519 -0.325379 -1.58358
upperneck 27.8859 2.27308 -8.99387
head 12.5768 -0.593414 -2.85715
rclavicle -1.14301e-014 -6.83819e-014
rhumerus -41.1288 29.3908 -82.687
rradius 55.1996
rwrist -13.1692
rhand -21.506 -15.1979
rfingers 7.12502
rthumb 4.88581 -45.1216
lclavicle -1.14301e-014 -6.83819e-014
lhumerus -62.9569 2.77897 75.8233
lradius 55.5242
lwrist -1.03498
lhand -27.8611 32.5629
lfingers 7.12502
lthumb -1.25173 62.539
rfemur 18.7882 25.3473 47.289
rtibia -11.1193
rfoot -35.4867 -28.1582
rtoes -9.282
lfemur -61.8486 -6.07331 -22.139
ltibia 43.4342
lfoot 1.73396 -22.0724
ltoes -32.9663
109
root 37.8951 14.8252 2.45474 123.432 -85.0358 -102.726
lowerback 11.3602 1.81242 4.17885
upperback -7.7211 3.47736 3.10352
thorax -15.0074 1.32859 0.317493
lowerneck -19.3776 -0.465581 -1.93591
upperneck 27.6094 2.08708 -8.57256
head 12.514 -0.6425 -2.65428
rclavicle -5.76476e-015 -1.43125e-014
rhumerus -40.2313 29.4238 -81.9905
rradius 56.9211
rwrist -13.0967
rhand -21.8353 -15.8638
rfingers 7.12502
rthumb 4.56783 -45.7946
lclavicle -5.76476e-015 -1.43125e-014
lhumerus -64.4682 2.5716 75.9327
lradius 57.8681
lwrist 0.317355
lhand -27.9318 32.6616
lfingers 7.12502
lthumb -1.32002 62.6373
rfemur 19.7855 26.7136 47.4812
rtibia -9.77588
rfoot -37.3018 -28.6286
rtoes -7.6307
lfemur -61.6095 -7.4165 -21.9593
ltibia 41.7709
lfoot 3.43389 -21.9634
ltoes -35.5385
110
root 37.5157 14.7991 2.44792 127.159 -85.3809 -106.305
lowerback 11.9769 1.95319 3.36651
upperback -7.62461 3.55615 2.98007
thorax -15.3185 1.44139 0.592767
lowerneck -19.5924 -0.63841 -2.18132
upperneck 27.2913 1.85278 -8.30429
head 12.4145 -0.719717 -2.53533
rclavicle -8.34896e-015 -2.78299e-014
rhumerus -39.3905 29.3736 -81.292
rradius 58.5227
rwrist -13.0081
rhand -22.3134 -16.2522
rfingers 7.12502
rthumb 4.10615 -46.1924
lclavicle -8.34896e-015 -2.78299e-014
lhumerus -65.6634 2.53777 76.0175
lradius 59.7275
lwrist 1.50666
lhand -28.2203 32.4293
lfingers 7.12502
lthumb -1.59871 62.4031
rfemur 20.2367 28.1428 47.7093
rtibia -7.72453
rfoot -37.7851 -30.4699
rtoes -9.07779
lfemur -61.0236 -8.61855 -21.8893
ltibia 41.0778
lfoot 4.31858 -21.2307
ltoes -37.7086
111
root 37.1083 14.7731 2.44243 130.764 -85.6538 -109.683
lowerback 12.3493 2.12487 2.55697
upperback -7.58427 3.65436 2.88119
thorax -15.5485 1.56567 0.896735
lowerneck -19.6061 -0.809833 -2.27083
upperneck 26.8937 1.58807 -8.16599
head 12.2447 -0.806021 -2.49282
rclavicle -4.37326e-015 4.77083e-015
rhumerus -38.8101 29.173 -80.6177
rradius 60.0114
rwrist -13.0691
rhand -22.7598 -16.0835
rfingers 7.12502
rthumb 3.67508 -46.0316
lclavicle -4.37326e-015 4.77083e-015
lhumerus -66.652 2.35927 76.2659
lradius 61.2258
lwrist 2.48055
lhand -28.6535 32.0871
lfingers 7.12502
lthumb -2.01708 62.0573
rfemur 19.4751 23.9803 45.5712
rtibia -6.23763
rfoot -34.8993 -27.2149
rtoes -13.9676
lfemur -60.1097 -9.68039 -22.0864
ltibia 42.0158
lfoot 6.14905 -20.8
ltoes -45.1806
112
root 36.6841 14.7521 2.43506 135.306 -85.7686 -113.945
lowerback 12.5972 2.35052 1.70509
upperback -7.58332 3.80825 2.81073
thorax -15.7588 1.72277 1.24594
lowerneck -19.6784 -0.933838 -2.32845
upperneck 26.7187 1.35138 -7.87043
head 12.1748 -0.865658 -2.40085
rclavicle 1.98785e-014 -7.15625e-015
rhumerus -38.2775 28.842 -80.0501
rradius 60.9698
rwrist -13.4126
rhand -23.3751 -14.8124
rfingers 7.12502
rthumb 3.08083 -44.7699
lclavicle 1.98785e-014 -7.15625e-015
lhumerus -67.3941 2.12166 76.6457
lradius 62.3763
lwrist 3.00118
lhand -29.0256 32.7055
lfingers 7.12502
lthumb -2.37648 62.672
rfemur 18.2316 19.5928 43.2191
rtibia -3.7956
rfoot -30.5163 -22.8368
rtoes -17.6879
lfemur -58.9629 -10.1293 -22.8052
ltibia 43.9619
lfoot 8.40727 -22.5487
ltoes -46.6722
